{
  "asset": {
    "generator": "glTF-Transform v4.3.0",
    "version": "2.0",
    "extras": {
      "author": "SonnyG1 (https://sketchfab.com/SonnyG1)",
      "license": "CC-BY-NC-SA-4.0 (http://creativecommons.org/licenses/by-nc-sa/4.0/)",
      "source": "https://sketchfab.com/3d-models/standard-mirror-rubiks-cube-silver-7d3e55b0dbc84a50bc6449f05a1f34e3",
      "title": "Standard Mirror Rubik's Cube (Silver)"
    }
  },
  "accessors": [
    {
      "type": "SCALAR",
      "componentType": 5123,
      "count": 912,
      "bufferView": 0,
      "byteOffset": 0
    },
    {
      "type": "SCALAR",
      "componentType": 5123,
      "count": 720,
      "bufferView": 0,
      "byteOffset": 1824
    },
    {
      "type": "SCALAR",
      "componentType": 5123,
      "count": 126,
      "bufferView": 0,
      "byteOffset": 3264
    },
    {
      "type": "SCALAR",
      "componentType": 5123,
      "count": 786,
      "bufferView": 0,
      "byteOffset": 3516
    },
    {
      "type": "SCALAR",
      "componentType": 5123,
      "count": 210,
      "bufferView": 0,
      "byteOffset": 5088
    },
    {
      "type": "SCALAR",
      "componentType": 5123,
      "count": 882,
      "bufferView": 0,
      "byteOffset": 5508
    },
    {
      "type": "SCALAR",
      "componentType": 5123,
      "count": 300,
      "bufferView": 0,
      "byteOffset": 7272
    },
    {
      "type": "SCALAR",
      "componentType": 5123,
      "count": 882,
      "bufferView": 0,
      "byteOffset": 7872
    },
    {
      "type": "SCALAR",
      "componentType": 5123,
      "count": 294,
      "bufferView": 0,
      "byteOffset": 9636
    },
    {
      "type": "SCALAR",
      "componentType": 5123,
      "count": 786,
      "bufferView": 0,
      "byteOffset": 10224
    },
    {
      "type": "SCALAR",
      "componentType": 5123,
      "count": 216,
      "bufferView": 0,
      "byteOffset": 11796
    },
    {
      "type": "SCALAR",
      "componentType": 5123,
      "count": 882,
      "bufferView": 0,
      "byteOffset": 12228
    },
    {
      "type": "SCALAR",
      "componentType": 5123,
      "count": 294,
      "bufferView": 0,
      "byteOffset": 13992
    },
    {
      "type": "SCALAR",
      "componentType": 5123,
      "count": 786,
      "bufferView": 0,
      "byteOffset": 14580
    },
    {
      "type": "SCALAR",
      "componentType": 5123,
      "count": 222,
      "bufferView": 0,
      "byteOffset": 16152
    },
    {
      "type": "SCALAR",
      "componentType": 5123,
      "count": 882,
      "bufferView": 0,
      "byteOffset": 16596
    },
    {
      "type": "SCALAR",
      "componentType": 5123,
      "count": 306,
      "bufferView": 0,
      "byteOffset": 18360
    },
    {
      "type": "SCALAR",
      "componentType": 5123,
      "count": 786,
      "bufferView": 0,
      "byteOffset": 18972
    },
    {
      "type": "SCALAR",
      "componentType": 5123,
      "count": 216,
      "bufferView": 0,
      "byteOffset": 20544
    },
    {
      "type": "SCALAR",
      "componentType": 5123,
      "count": 720,
      "bufferView": 0,
      "byteOffset": 20976
    },
    {
      "type": "SCALAR",
      "componentType": 5123,
      "count": 126,
      "bufferView": 0,
      "byteOffset": 22416
    },
    {
      "type": "SCALAR",
      "componentType": 5123,
      "count": 786,
      "bufferView": 0,
      "byteOffset": 22668
    },
    {
      "type": "SCALAR",
      "componentType": 5123,
      "count": 222,
      "bufferView": 0,
      "byteOffset": 24240
    },
    {
      "type": "SCALAR",
      "componentType": 5123,
      "count": 720,
      "bufferView": 0,
      "byteOffset": 24684
    },
    {
      "type": "SCALAR",
      "componentType": 5123,
      "count": 126,
      "bufferView": 0,
      "byteOffset": 26124
    },
    {
      "type": "SCALAR",
      "componentType": 5123,
      "count": 816,
      "bufferView": 0,
      "byteOffset": 26376
    },
    {
      "type": "SCALAR",
      "componentType": 5123,
      "count": 228,
      "bufferView": 0,
      "byteOffset": 28008
    },
    {
      "type": "SCALAR",
      "componentType": 5123,
      "count": 786,
      "bufferView": 0,
      "byteOffset": 28464
    },
    {
      "type": "SCALAR",
      "componentType": 5123,
      "count": 228,
      "bufferView": 0,
      "byteOffset": 30036
    },
    {
      "type": "SCALAR",
      "componentType": 5123,
      "count": 720,
      "bufferView": 0,
      "byteOffset": 30492
    },
    {
      "type": "SCALAR",
      "componentType": 5123,
      "count": 126,
      "bufferView": 0,
      "byteOffset": 31932
    },
    {
      "type": "SCALAR",
      "componentType": 5123,
      "count": 720,
      "bufferView": 0,
      "byteOffset": 32184
    },
    {
      "type": "SCALAR",
      "componentType": 5123,
      "count": 126,
      "bufferView": 0,
      "byteOffset": 33624
    },
    {
      "type": "SCALAR",
      "componentType": 5123,
      "count": 786,
      "bufferView": 0,
      "byteOffset": 33876
    },
    {
      "type": "SCALAR",
      "componentType": 5123,
      "count": 228,
      "bufferView": 0,
      "byteOffset": 35448
    },
    {
      "type": "SCALAR",
      "componentType": 5123,
      "count": 786,
      "bufferView": 0,
      "byteOffset": 35904
    },
    {
      "type": "SCALAR",
      "componentType": 5123,
      "count": 228,
      "bufferView": 0,
      "byteOffset": 37476
    },
    {
      "type": "SCALAR",
      "componentType": 5123,
      "count": 882,
      "bufferView": 0,
      "byteOffset": 37932
    },
    {
      "type": "SCALAR",
      "componentType": 5123,
      "count": 306,
      "bufferView": 0,
      "byteOffset": 39696
    },
    {
      "type": "SCALAR",
      "componentType": 5123,
      "count": 882,
      "bufferView": 0,
      "byteOffset": 40308
    },
    {
      "type": "SCALAR",
      "componentType": 5123,
      "count": 312,
      "bufferView": 0,
      "byteOffset": 42072
    },
    {
      "type": "SCALAR",
      "componentType": 5123,
      "count": 804,
      "bufferView": 0,
      "byteOffset": 42696
    },
    {
      "type": "SCALAR",
      "componentType": 5123,
      "count": 228,
      "bufferView": 0,
      "byteOffset": 44304
    },
    {
      "type": "SCALAR",
      "componentType": 5123,
      "count": 720,
      "bufferView": 0,
      "byteOffset": 44760
    },
    {
      "type": "SCALAR",
      "componentType": 5123,
      "count": 126,
      "bufferView": 0,
      "byteOffset": 46200
    },
    {
      "type": "SCALAR",
      "componentType": 5123,
      "count": 786,
      "bufferView": 0,
      "byteOffset": 46452
    },
    {
      "type": "SCALAR",
      "componentType": 5123,
      "count": 222,
      "bufferView": 0,
      "byteOffset": 48024
    },
    {
      "type": "SCALAR",
      "componentType": 5123,
      "count": 918,
      "bufferView": 0,
      "byteOffset": 48468
    },
    {
      "type": "SCALAR",
      "componentType": 5123,
      "count": 324,
      "bufferView": 0,
      "byteOffset": 50304
    },
    {
      "type": "SCALAR",
      "componentType": 5123,
      "count": 798,
      "bufferView": 0,
      "byteOffset": 50952
    },
    {
      "type": "SCALAR",
      "componentType": 5123,
      "count": 228,
      "bufferView": 0,
      "byteOffset": 52548
    },
    {
      "type": "SCALAR",
      "componentType": 5123,
      "count": 882,
      "bufferView": 0,
      "byteOffset": 53004
    },
    {
      "type": "SCALAR",
      "componentType": 5123,
      "count": 324,
      "bufferView": 0,
      "byteOffset": 54768
    },
    {
      "type": "VEC3",
      "componentType": 5126,
      "count": 158,
      "bufferView": 1,
      "byteOffset": 0
    },
    {
      "type": "VEC3",
      "componentType": 5126,
      "count": 158,
      "max": [
        0.6000000834465027,
        0.6000000238418579,
        0.6000000238418579
      ],
      "min": [
        -0.6000000834465027,
        -0.6000000238418579,
        -0.6000000238418579
      ],
      "bufferView": 1,
      "byteOffset": 12
    },
    {
      "type": "VEC3",
      "componentType": 5126,
      "count": 135,
      "bufferView": 2,
      "byteOffset": 0
    },
    {
      "type": "VEC3",
      "componentType": 5126,
      "count": 135,
      "max": [
        0.49950000643730164,
        0.49950000643730164,
        -0.5056074857711792
      ],
      "min": [
        -0.49950000643730164,
        -0.49569395184516907,
        -2.0999999046325684
      ],
      "bufferView": 2,
      "byteOffset": 12
    },
    {
      "type": "VEC3",
      "componentType": 5126,
      "count": 44,
      "bufferView": 3,
      "byteOffset": 0
    },
    {
      "type": "VEC3",
      "componentType": 5126,
      "count": 44,
      "max": [
        0.4195000231266022,
        0.4195000231266022,
        -2.0999999046325684
      ],
      "min": [
        -0.4195000231266022,
        -0.4195000231266022,
        -2.109999895095825
      ],
      "bufferView": 3,
      "byteOffset": 12
    },
    {
      "type": "VEC2",
      "componentType": 5126,
      "count": 44,
      "bufferView": 3,
      "byteOffset": 24
    },
    {
      "type": "VEC3",
      "componentType": 5126,
      "count": 155,
      "bufferView": 4,
      "byteOffset": 0
    },
    {
      "type": "VEC3",
      "componentType": 5126,
      "count": 155,
      "max": [
        1.7999999523162842,
        0.49569395184516907,
        -0.5043060779571533
      ],
      "min": [
        0.5043060779571533,
        -0.49569395184516907,
        -2.0999999046325684
      ],
      "bufferView": 4,
      "byteOffset": 12
    },
    {
      "type": "VEC3",
      "componentType": 5126,
      "count": 74,
      "bufferView": 5,
      "byteOffset": 0
    },
    {
      "type": "VEC3",
      "componentType": 5126,
      "count": 74,
      "max": [
        1.809999942779541,
        0.4195000231266022,
        -0.5805000066757202
      ],
      "min": [
        0.580500066280365,
        -0.4195000231266022,
        -2.109999895095825
      ],
      "bufferView": 5,
      "byteOffset": 12
    },
    {
      "type": "VEC2",
      "componentType": 5126,
      "count": 74,
      "bufferView": 5,
      "byteOffset": 24
    },
    {
      "type": "VEC3",
      "componentType": 5126,
      "count": 179,
      "bufferView": 6,
      "byteOffset": 0
    },
    {
      "type": "VEC3",
      "componentType": 5126,
      "count": 179,
      "max": [
        1.7999999523162842,
        -0.5043060183525085,
        -0.5005000233650208
      ],
      "min": [
        0.5043060183525085,
        -1.399999976158142,
        -2.0999999046325684
      ],
      "bufferView": 6,
      "byteOffset": 12
    },
    {
      "type": "VEC3",
      "componentType": 5126,
      "count": 106,
      "bufferView": 7,
      "byteOffset": 0
    },
    {
      "type": "VEC3",
      "componentType": 5126,
      "count": 106,
      "max": [
        1.809999942779541,
        -0.5805000066757202,
        -0.5805000066757202
      ],
      "min": [
        0.5805000066757202,
        -1.409999966621399,
        -2.109999895095825
      ],
      "bufferView": 7,
      "byteOffset": 12
    },
    {
      "type": "VEC2",
      "componentType": 5126,
      "count": 106,
      "bufferView": 7,
      "byteOffset": 24
    },
    {
      "type": "VEC3",
      "componentType": 5126,
      "count": 179,
      "bufferView": 8,
      "byteOffset": 0
    },
    {
      "type": "VEC3",
      "componentType": 5126,
      "count": 179,
      "max": [
        1.7999999523162842,
        1.600000023841858,
        -0.5043060779571533
      ],
      "min": [
        0.5056109428405762,
        0.5043060183525085,
        -2.0999999046325684
      ],
      "bufferView": 8,
      "byteOffset": 12
    },
    {
      "type": "VEC3",
      "componentType": 5126,
      "count": 104,
      "bufferView": 9,
      "byteOffset": 0
    },
    {
      "type": "VEC3",
      "componentType": 5126,
      "count": 104,
      "max": [
        1.809999942779541,
        1.6100000143051147,
        -0.5805000066757202
      ],
      "min": [
        0.5805000066757202,
        0.5805000066757202,
        -2.109999895095825
      ],
      "bufferView": 9,
      "byteOffset": 12
    },
    {
      "type": "VEC2",
      "componentType": 5126,
      "count": 104,
      "bufferView": 9,
      "byteOffset": 24
    },
    {
      "type": "VEC3",
      "componentType": 5126,
      "count": 155,
      "bufferView": 10,
      "byteOffset": 0
    },
    {
      "type": "VEC3",
      "componentType": 5126,
      "count": 155,
      "max": [
        0.49569398164749146,
        1.600000023841858,
        -0.5043060779571533
      ],
      "min": [
        -0.49569395184516907,
        0.5043060779571533,
        -2.0999999046325684
      ],
      "bufferView": 10,
      "byteOffset": 12
    },
    {
      "type": "VEC3",
      "componentType": 5126,
      "count": 76,
      "bufferView": 11,
      "byteOffset": 0
    },
    {
      "type": "VEC3",
      "componentType": 5126,
      "count": 76,
      "max": [
        0.4195000231266022,
        1.6100000143051147,
        -0.580500066280365
      ],
      "min": [
        -0.4195000231266022,
        0.580500066280365,
        -2.109999895095825
      ],
      "bufferView": 11,
      "byteOffset": 12
    },
    {
      "type": "VEC2",
      "componentType": 5126,
      "count": 76,
      "bufferView": 11,
      "byteOffset": 24
    },
    {
      "type": "VEC3",
      "componentType": 5126,
      "count": 179,
      "bufferView": 12,
      "byteOffset": 0
    },
    {
      "type": "VEC3",
      "componentType": 5126,
      "count": 179,
      "max": [
        -0.5043060183525085,
        1.600000023841858,
        -0.5043060779571533
      ],
      "min": [
        -1.2000000476837158,
        0.5043060779571533,
        -2.0999999046325684
      ],
      "bufferView": 12,
      "byteOffset": 12
    },
    {
      "type": "VEC3",
      "componentType": 5126,
      "count": 104,
      "bufferView": 13,
      "byteOffset": 0
    },
    {
      "type": "VEC3",
      "componentType": 5126,
      "count": 104,
      "max": [
        -0.580500066280365,
        1.6100000143051147,
        -0.5805000066757202
      ],
      "min": [
        -1.2100000381469727,
        0.5805000066757202,
        -2.109999895095825
      ],
      "bufferView": 13,
      "byteOffset": 12
    },
    {
      "type": "VEC2",
      "componentType": 5126,
      "count": 104,
      "bufferView": 13,
      "byteOffset": 24
    },
    {
      "type": "VEC3",
      "componentType": 5126,
      "count": 155,
      "bufferView": 14,
      "byteOffset": 0
    },
    {
      "type": "VEC3",
      "componentType": 5126,
      "count": 155,
      "max": [
        -0.5043060779571533,
        0.49569398164749146,
        -0.5043060779571533
      ],
      "min": [
        -1.2000000476837158,
        -0.49569395184516907,
        -2.0999999046325684
      ],
      "bufferView": 14,
      "byteOffset": 12
    },
    {
      "type": "VEC3",
      "componentType": 5126,
      "count": 78,
      "bufferView": 15,
      "byteOffset": 0
    },
    {
      "type": "VEC3",
      "componentType": 5126,
      "count": 78,
      "max": [
        -0.580500066280365,
        0.4195000231266022,
        -0.580500066280365
      ],
      "min": [
        -1.2100000381469727,
        -0.4195000231266022,
        -2.109999895095825
      ],
      "bufferView": 15,
      "byteOffset": 12
    },
    {
      "type": "VEC2",
      "componentType": 5126,
      "count": 78,
      "bufferView": 15,
      "byteOffset": 24
    },
    {
      "type": "VEC3",
      "componentType": 5126,
      "count": 179,
      "bufferView": 16,
      "byteOffset": 0
    },
    {
      "type": "VEC3",
      "componentType": 5126,
      "count": 179,
      "max": [
        -0.5043060183525085,
        -0.5043060183525085,
        -0.5043060183525085
      ],
      "min": [
        -1.2000000476837158,
        -1.399999976158142,
        -2.0999999046325684
      ],
      "bufferView": 16,
      "byteOffset": 12
    },
    {
      "type": "VEC3",
      "componentType": 5126,
      "count": 108,
      "bufferView": 17,
      "byteOffset": 0
    },
    {
      "type": "VEC3",
      "componentType": 5126,
      "count": 108,
      "max": [
        -0.5805000066757202,
        -0.5805000066757202,
        -0.5805000066757202
      ],
      "min": [
        -1.2100000381469727,
        -1.409999966621399,
        -2.109999895095825
      ],
      "bufferView": 17,
      "byteOffset": 12
    },
    {
      "type": "VEC2",
      "componentType": 5126,
      "count": 108,
      "bufferView": 17,
      "byteOffset": 24
    },
    {
      "type": "VEC3",
      "componentType": 5126,
      "count": 155,
      "bufferView": 18,
      "byteOffset": 0
    },
    {
      "type": "VEC3",
      "componentType": 5126,
      "count": 155,
      "max": [
        0.49569395184516907,
        -0.5043060779571533,
        -0.5043060779571533
      ],
      "min": [
        -0.49569398164749146,
        -1.399999976158142,
        -2.0999999046325684
      ],
      "bufferView": 18,
      "byteOffset": 12
    },
    {
      "type": "VEC3",
      "componentType": 5126,
      "count": 76,
      "bufferView": 19,
      "byteOffset": 0
    },
    {
      "type": "VEC3",
      "componentType": 5126,
      "count": 76,
      "max": [
        0.4195000231266022,
        -0.580500066280365,
        -0.580500066280365
      ],
      "min": [
        -0.4195000231266022,
        -1.409999966621399,
        -2.109999895095825
      ],
      "bufferView": 19,
      "byteOffset": 12
    },
    {
      "type": "VEC2",
      "componentType": 5126,
      "count": 76,
      "bufferView": 19,
      "byteOffset": 24
    },
    {
      "type": "VEC3",
      "componentType": 5126,
      "count": 135,
      "bufferView": 20,
      "byteOffset": 0
    },
    {
      "type": "VEC3",
      "componentType": 5126,
      "count": 135,
      "max": [
        0.49569395184516907,
        -0.5056074857711792,
        0.49569395184516907
      ],
      "min": [
        -0.49950000643730164,
        -1.399999976158142,
        -0.49569395184516907
      ],
      "bufferView": 20,
      "byteOffset": 12
    },
    {
      "type": "VEC3",
      "componentType": 5126,
      "count": 44,
      "bufferView": 21,
      "byteOffset": 0
    },
    {
      "type": "VEC3",
      "componentType": 5126,
      "count": 44,
      "max": [
        0.4195000231266022,
        -1.399999976158142,
        0.4195000231266022
      ],
      "min": [
        -0.4195000231266022,
        -1.409999966621399,
        -0.4195000231266022
      ],
      "bufferView": 21,
      "byteOffset": 12
    },
    {
      "type": "VEC2",
      "componentType": 5126,
      "count": 44,
      "bufferView": 21,
      "byteOffset": 24
    },
    {
      "type": "VEC3",
      "componentType": 5126,
      "count": 155,
      "bufferView": 22,
      "byteOffset": 0
    },
    {
      "type": "VEC3",
      "componentType": 5126,
      "count": 155,
      "max": [
        1.7999999523162842,
        -0.5043060779571533,
        0.49569395184516907
      ],
      "min": [
        0.5043060779571533,
        -1.399999976158142,
        -0.49569395184516907
      ],
      "bufferView": 22,
      "byteOffset": 12
    },
    {
      "type": "VEC3",
      "componentType": 5126,
      "count": 78,
      "bufferView": 23,
      "byteOffset": 0
    },
    {
      "type": "VEC3",
      "componentType": 5126,
      "count": 78,
      "max": [
        1.809999942779541,
        -0.5805000066757202,
        0.4195000231266022
      ],
      "min": [
        0.580500066280365,
        -1.409999966621399,
        -0.4195000231266022
      ],
      "bufferView": 23,
      "byteOffset": 12
    },
    {
      "type": "VEC2",
      "componentType": 5126,
      "count": 78,
      "bufferView": 23,
      "byteOffset": 24
    },
    {
      "type": "VEC3",
      "componentType": 5126,
      "count": 135,
      "bufferView": 24,
      "byteOffset": 0
    },
    {
      "type": "VEC3",
      "componentType": 5126,
      "count": 135,
      "max": [
        -0.5056074857711792,
        0.49569395184516907,
        0.49569395184516907
      ],
      "min": [
        -1.2000000476837158,
        -0.49569395184516907,
        -0.49569395184516907
      ],
      "bufferView": 24,
      "byteOffset": 12
    },
    {
      "type": "VEC3",
      "componentType": 5126,
      "count": 44,
      "bufferView": 25,
      "byteOffset": 0
    },
    {
      "type": "VEC3",
      "componentType": 5126,
      "count": 44,
      "max": [
        -1.2000000476837158,
        0.4195000231266022,
        0.4195000231266022
      ],
      "min": [
        -1.2100000381469727,
        -0.4195000231266022,
        -0.4195000231266022
      ],
      "bufferView": 25,
      "byteOffset": 12
    },
    {
      "type": "VEC2",
      "componentType": 5126,
      "count": 44,
      "bufferView": 25,
      "byteOffset": 24
    },
    {
      "type": "VEC3",
      "componentType": 5126,
      "count": 160,
      "bufferView": 26,
      "byteOffset": 0
    },
    {
      "type": "VEC3",
      "componentType": 5126,
      "count": 160,
      "max": [
        -0.5043060779571533,
        -0.5043060779571533,
        0.49569395184516907
      ],
      "min": [
        -1.2000000476837158,
        -1.399999976158142,
        -0.49569398164749146
      ],
      "bufferView": 26,
      "byteOffset": 12
    },
    {
      "type": "VEC3",
      "componentType": 5126,
      "count": 80,
      "bufferView": 27,
      "byteOffset": 0
    },
    {
      "type": "VEC3",
      "componentType": 5126,
      "count": 80,
      "max": [
        -0.580500066280365,
        -0.580500066280365,
        0.4195000231266022
      ],
      "min": [
        -1.2100000381469727,
        -1.409999966621399,
        -0.4195000231266022
      ],
      "bufferView": 27,
      "byteOffset": 12
    },
    {
      "type": "VEC2",
      "componentType": 5126,
      "count": 80,
      "bufferView": 27,
      "byteOffset": 24
    },
    {
      "type": "VEC3",
      "componentType": 5126,
      "count": 155,
      "bufferView": 28,
      "byteOffset": 0
    },
    {
      "type": "VEC3",
      "componentType": 5126,
      "count": 155,
      "max": [
        -0.5043060779571533,
        1.600000023841858,
        0.49569395184516907
      ],
      "min": [
        -1.2000000476837158,
        0.5043060779571533,
        -0.49569395184516907
      ],
      "bufferView": 28,
      "byteOffset": 12
    },
    {
      "type": "VEC3",
      "componentType": 5126,
      "count": 80,
      "bufferView": 29,
      "byteOffset": 0
    },
    {
      "type": "VEC3",
      "componentType": 5126,
      "count": 80,
      "max": [
        -0.580500066280365,
        1.6100000143051147,
        0.4195000231266022
      ],
      "min": [
        -1.2100000381469727,
        0.580500066280365,
        -0.4195000231266022
      ],
      "bufferView": 29,
      "byteOffset": 12
    },
    {
      "type": "VEC2",
      "componentType": 5126,
      "count": 80,
      "bufferView": 29,
      "byteOffset": 24
    },
    {
      "type": "VEC3",
      "componentType": 5126,
      "count": 135,
      "bufferView": 30,
      "byteOffset": 0
    },
    {
      "type": "VEC3",
      "componentType": 5126,
      "count": 135,
      "max": [
        0.49569395184516907,
        1.600000023841858,
        0.49569395184516907
      ],
      "min": [
        -0.49569395184516907,
        0.5056074857711792,
        -0.49950000643730164
      ],
      "bufferView": 30,
      "byteOffset": 12
    },
    {
      "type": "VEC3",
      "componentType": 5126,
      "count": 44,
      "bufferView": 31,
      "byteOffset": 0
    },
    {
      "type": "VEC3",
      "componentType": 5126,
      "count": 44,
      "max": [
        0.4195000231266022,
        1.6100000143051147,
        0.4195000231266022
      ],
      "min": [
        -0.4195000231266022,
        1.600000023841858,
        -0.4195000231266022
      ],
      "bufferView": 31,
      "byteOffset": 12
    },
    {
      "type": "VEC2",
      "componentType": 5126,
      "count": 44,
      "bufferView": 31,
      "byteOffset": 24
    },
    {
      "type": "VEC3",
      "componentType": 5126,
      "count": 135,
      "bufferView": 32,
      "byteOffset": 0
    },
    {
      "type": "VEC3",
      "componentType": 5126,
      "count": 135,
      "max": [
        1.7999999523162842,
        0.49569395184516907,
        0.49569395184516907
      ],
      "min": [
        0.5056074857711792,
        -0.49569395184516907,
        -0.49569395184516907
      ],
      "bufferView": 32,
      "byteOffset": 12
    },
    {
      "type": "VEC3",
      "componentType": 5126,
      "count": 44,
      "bufferView": 33,
      "byteOffset": 0
    },
    {
      "type": "VEC3",
      "componentType": 5126,
      "count": 44,
      "max": [
        1.809999942779541,
        0.4195000231266022,
        0.4195000231266022
      ],
      "min": [
        1.7999999523162842,
        -0.4195000231266022,
        -0.4195000231266022
      ],
      "bufferView": 33,
      "byteOffset": 12
    },
    {
      "type": "VEC2",
      "componentType": 5126,
      "count": 44,
      "bufferView": 33,
      "byteOffset": 24
    },
    {
      "type": "VEC3",
      "componentType": 5126,
      "count": 155,
      "bufferView": 34,
      "byteOffset": 0
    },
    {
      "type": "VEC3",
      "componentType": 5126,
      "count": 155,
      "max": [
        1.7999999523162842,
        1.600000023841858,
        0.49569395184516907
      ],
      "min": [
        0.5043060779571533,
        0.5043060779571533,
        -0.49569395184516907
      ],
      "bufferView": 34,
      "byteOffset": 12
    },
    {
      "type": "VEC3",
      "componentType": 5126,
      "count": 80,
      "bufferView": 35,
      "byteOffset": 0
    },
    {
      "type": "VEC3",
      "componentType": 5126,
      "count": 80,
      "max": [
        1.809999942779541,
        1.6100000143051147,
        0.4195000231266022
      ],
      "min": [
        0.580500066280365,
        0.580500066280365,
        -0.4195000231266022
      ],
      "bufferView": 35,
      "byteOffset": 12
    },
    {
      "type": "VEC2",
      "componentType": 5126,
      "count": 80,
      "bufferView": 35,
      "byteOffset": 24
    },
    {
      "type": "VEC3",
      "componentType": 5126,
      "count": 155,
      "bufferView": 36,
      "byteOffset": 0
    },
    {
      "type": "VEC3",
      "componentType": 5126,
      "count": 155,
      "max": [
        1.7999999523162842,
        0.49569395184516907,
        0.8999999761581421
      ],
      "min": [
        0.5043060779571533,
        -0.49569395184516907,
        0.5043060779571533
      ],
      "bufferView": 36,
      "byteOffset": 12
    },
    {
      "type": "VEC3",
      "componentType": 5126,
      "count": 80,
      "bufferView": 37,
      "byteOffset": 0
    },
    {
      "type": "VEC3",
      "componentType": 5126,
      "count": 80,
      "max": [
        1.809999942779541,
        0.4195000231266022,
        0.9099999666213989
      ],
      "min": [
        0.580500066280365,
        -0.4195000231266022,
        0.5805000066757202
      ],
      "bufferView": 37,
      "byteOffset": 12
    },
    {
      "type": "VEC2",
      "componentType": 5126,
      "count": 80,
      "bufferView": 37,
      "byteOffset": 24
    },
    {
      "type": "VEC3",
      "componentType": 5126,
      "count": 179,
      "bufferView": 38,
      "byteOffset": 0
    },
    {
      "type": "VEC3",
      "componentType": 5126,
      "count": 179,
      "max": [
        1.7999999523162842,
        1.600000023841858,
        0.8999999761581421
      ],
      "min": [
        0.5043060183525085,
        0.5043060779571533,
        0.5043060779571533
      ],
      "bufferView": 38,
      "byteOffset": 12
    },
    {
      "type": "VEC3",
      "componentType": 5126,
      "count": 108,
      "bufferView": 39,
      "byteOffset": 0
    },
    {
      "type": "VEC3",
      "componentType": 5126,
      "count": 108,
      "max": [
        1.809999942779541,
        1.6100000143051147,
        0.9099999666213989
      ],
      "min": [
        0.5805000066757202,
        0.5805000066757202,
        0.5805000066757202
      ],
      "bufferView": 39,
      "byteOffset": 12
    },
    {
      "type": "VEC2",
      "componentType": 5126,
      "count": 108,
      "bufferView": 39,
      "byteOffset": 24
    },
    {
      "type": "VEC3",
      "componentType": 5126,
      "count": 179,
      "bufferView": 40,
      "byteOffset": 0
    },
    {
      "type": "VEC3",
      "componentType": 5126,
      "count": 179,
      "max": [
        1.7999999523162842,
        -0.5043060183525085,
        0.8999999761581421
      ],
      "min": [
        0.5043060183525085,
        -1.399999976158142,
        0.5043060183525085
      ],
      "bufferView": 40,
      "byteOffset": 12
    },
    {
      "type": "VEC3",
      "componentType": 5126,
      "count": 110,
      "bufferView": 41,
      "byteOffset": 0
    },
    {
      "type": "VEC3",
      "componentType": 5126,
      "count": 110,
      "max": [
        1.809999942779541,
        -0.5805000066757202,
        0.9099999666213989
      ],
      "min": [
        0.5805000066757202,
        -1.409999966621399,
        0.5805000066757202
      ],
      "bufferView": 41,
      "byteOffset": 12
    },
    {
      "type": "VEC2",
      "componentType": 5126,
      "count": 110,
      "bufferView": 41,
      "byteOffset": 24
    },
    {
      "type": "VEC3",
      "componentType": 5126,
      "count": 158,
      "bufferView": 42,
      "byteOffset": 0
    },
    {
      "type": "VEC3",
      "componentType": 5126,
      "count": 158,
      "max": [
        0.49569395184516907,
        -0.5043060779571533,
        0.8999999761581421
      ],
      "min": [
        -0.49569395184516907,
        -1.399999976158142,
        0.5043060779571533
      ],
      "bufferView": 42,
      "byteOffset": 12
    },
    {
      "type": "VEC3",
      "componentType": 5126,
      "count": 80,
      "bufferView": 43,
      "byteOffset": 0
    },
    {
      "type": "VEC3",
      "componentType": 5126,
      "count": 80,
      "max": [
        0.4195000231266022,
        -0.580500066280365,
        0.9099999666213989
      ],
      "min": [
        -0.4195000231266022,
        -1.409999966621399,
        0.580500066280365
      ],
      "bufferView": 43,
      "byteOffset": 12
    },
    {
      "type": "VEC2",
      "componentType": 5126,
      "count": 80,
      "bufferView": 43,
      "byteOffset": 24
    },
    {
      "type": "VEC3",
      "componentType": 5126,
      "count": 135,
      "bufferView": 44,
      "byteOffset": 0
    },
    {
      "type": "VEC3",
      "componentType": 5126,
      "count": 135,
      "max": [
        0.49569395184516907,
        0.49569395184516907,
        0.8999999761581421
      ],
      "min": [
        -0.49569395184516907,
        -0.49569395184516907,
        0.5056074857711792
      ],
      "bufferView": 44,
      "byteOffset": 12
    },
    {
      "type": "VEC3",
      "componentType": 5126,
      "count": 44,
      "bufferView": 45,
      "byteOffset": 0
    },
    {
      "type": "VEC3",
      "componentType": 5126,
      "count": 44,
      "max": [
        0.4195000231266022,
        0.4195000231266022,
        0.9099999666213989
      ],
      "min": [
        -0.4195000231266022,
        -0.4195000231266022,
        0.8999999761581421
      ],
      "bufferView": 45,
      "byteOffset": 12
    },
    {
      "type": "VEC2",
      "componentType": 5126,
      "count": 44,
      "bufferView": 45,
      "byteOffset": 24
    },
    {
      "type": "VEC3",
      "componentType": 5126,
      "count": 155,
      "bufferView": 46,
      "byteOffset": 0
    },
    {
      "type": "VEC3",
      "componentType": 5126,
      "count": 155,
      "max": [
        0.49569395184516907,
        1.600000023841858,
        0.8999999761581421
      ],
      "min": [
        -0.49569395184516907,
        0.5043060779571533,
        0.5043060779571533
      ],
      "bufferView": 46,
      "byteOffset": 12
    },
    {
      "type": "VEC3",
      "componentType": 5126,
      "count": 78,
      "bufferView": 47,
      "byteOffset": 0
    },
    {
      "type": "VEC3",
      "componentType": 5126,
      "count": 78,
      "max": [
        0.4195000231266022,
        1.6100000143051147,
        0.9099999666213989
      ],
      "min": [
        -0.4195000231266022,
        0.580500066280365,
        0.580500066280365
      ],
      "bufferView": 47,
      "byteOffset": 12
    },
    {
      "type": "VEC2",
      "componentType": 5126,
      "count": 78,
      "bufferView": 47,
      "byteOffset": 24
    },
    {
      "type": "VEC3",
      "componentType": 5126,
      "count": 185,
      "bufferView": 48,
      "byteOffset": 0
    },
    {
      "type": "VEC3",
      "componentType": 5126,
      "count": 185,
      "max": [
        -0.5043060183525085,
        -0.5043060183525085,
        0.8999999761581421
      ],
      "min": [
        -1.2000000476837158,
        -1.399999976158142,
        0.5043060183525085
      ],
      "bufferView": 48,
      "byteOffset": 12
    },
    {
      "type": "VEC3",
      "componentType": 5126,
      "count": 114,
      "bufferView": 49,
      "byteOffset": 0
    },
    {
      "type": "VEC3",
      "componentType": 5126,
      "count": 114,
      "max": [
        -0.580500066280365,
        -0.5805000066757202,
        0.9099999666213989
      ],
      "min": [
        -1.2100000381469727,
        -1.409999966621399,
        0.5805000066757202
      ],
      "bufferView": 49,
      "byteOffset": 12
    },
    {
      "type": "VEC2",
      "componentType": 5126,
      "count": 114,
      "bufferView": 49,
      "byteOffset": 24
    },
    {
      "type": "VEC3",
      "componentType": 5126,
      "count": 157,
      "bufferView": 50,
      "byteOffset": 0
    },
    {
      "type": "VEC3",
      "componentType": 5126,
      "count": 157,
      "max": [
        -0.5043060779571533,
        0.49569395184516907,
        0.8999999761581421
      ],
      "min": [
        -1.2000000476837158,
        -0.49569395184516907,
        0.5043060779571533
      ],
      "bufferView": 50,
      "byteOffset": 12
    },
    {
      "type": "VEC3",
      "componentType": 5126,
      "count": 80,
      "bufferView": 51,
      "byteOffset": 0
    },
    {
      "type": "VEC3",
      "componentType": 5126,
      "count": 80,
      "max": [
        -0.580500066280365,
        0.4195000231266022,
        0.9099999666213989
      ],
      "min": [
        -1.2100000381469727,
        -0.4195000231266022,
        0.580500066280365
      ],
      "bufferView": 51,
      "byteOffset": 12
    },
    {
      "type": "VEC2",
      "componentType": 5126,
      "count": 80,
      "bufferView": 51,
      "byteOffset": 24
    },
    {
      "type": "VEC3",
      "componentType": 5126,
      "count": 179,
      "bufferView": 52,
      "byteOffset": 0
    },
    {
      "type": "VEC3",
      "componentType": 5126,
      "count": 179,
      "max": [
        -0.5043060779571533,
        1.600000023841858,
        0.8999999761581421
      ],
      "min": [
        -1.2000000476837158,
        0.5043060183525085,
        0.5043060183525085
      ],
      "bufferView": 52,
      "byteOffset": 12
    },
    {
      "type": "VEC3",
      "componentType": 5126,
      "count": 114,
      "bufferView": 53,
      "byteOffset": 0
    },
    {
      "type": "VEC3",
      "componentType": 5126,
      "count": 114,
      "max": [
        -0.580500066280365,
        1.6100000143051147,
        0.9099999666213989
      ],
      "min": [
        -1.2100000381469727,
        0.5805000066757202,
        0.5805000066757202
      ],
      "bufferView": 53,
      "byteOffset": 12
    },
    {
      "type": "VEC2",
      "componentType": 5126,
      "count": 114,
      "bufferView": 53,
      "byteOffset": 24
    }
  ],
  "bufferViews": [
    {
      "buffer": 0,
      "byteOffset": 0,
      "byteLength": 55416,
      "target": 34963
    },
    {
      "buffer": 0,
      "byteOffset": 55416,
      "byteLength": 3792,
      "byteStride": 24,
      "target": 34962
    },
    {
      "buffer": 0,
      "byteOffset": 59208,
      "byteLength": 3240,
      "byteStride": 24,
      "target": 34962
    },
    {
      "buffer": 0,
      "byteOffset": 62448,
      "byteLength": 1408,
      "byteStride": 32,
      "target": 34962
    },
    {
      "buffer": 0,
      "byteOffset": 63856,
      "byteLength": 3720,
      "byteStride": 24,
      "target": 34962
    },
    {
      "buffer": 0,
      "byteOffset": 67576,
      "byteLength": 2368,
      "byteStride": 32,
      "target": 34962
    },
    {
      "buffer": 0,
      "byteOffset": 69944,
      "byteLength": 4296,
      "byteStride": 24,
      "target": 34962
    },
    {
      "buffer": 0,
      "byteOffset": 74240,
      "byteLength": 3392,
      "byteStride": 32,
      "target": 34962
    },
    {
      "buffer": 0,
      "byteOffset": 77632,
      "byteLength": 4296,
      "byteStride": 24,
      "target": 34962
    },
    {
      "buffer": 0,
      "byteOffset": 81928,
      "byteLength": 3328,
      "byteStride": 32,
      "target": 34962
    },
    {
      "buffer": 0,
      "byteOffset": 85256,
      "byteLength": 3720,
      "byteStride": 24,
      "target": 34962
    },
    {
      "buffer": 0,
      "byteOffset": 88976,
      "byteLength": 2432,
      "byteStride": 32,
      "target": 34962
    },
    {
      "buffer": 0,
      "byteOffset": 91408,
      "byteLength": 4296,
      "byteStride": 24,
      "target": 34962
    },
    {
      "buffer": 0,
      "byteOffset": 95704,
      "byteLength": 3328,
      "byteStride": 32,
      "target": 34962
    },
    {
      "buffer": 0,
      "byteOffset": 99032,
      "byteLength": 3720,
      "byteStride": 24,
      "target": 34962
    },
    {
      "buffer": 0,
      "byteOffset": 102752,
      "byteLength": 2496,
      "byteStride": 32,
      "target": 34962
    },
    {
      "buffer": 0,
      "byteOffset": 105248,
      "byteLength": 4296,
      "byteStride": 24,
      "target": 34962
    },
    {
      "buffer": 0,
      "byteOffset": 109544,
      "byteLength": 3456,
      "byteStride": 32,
      "target": 34962
    },
    {
      "buffer": 0,
      "byteOffset": 113000,
      "byteLength": 3720,
      "byteStride": 24,
      "target": 34962
    },
    {
      "buffer": 0,
      "byteOffset": 116720,
      "byteLength": 2432,
      "byteStride": 32,
      "target": 34962
    },
    {
      "buffer": 0,
      "byteOffset": 119152,
      "byteLength": 3240,
      "byteStride": 24,
      "target": 34962
    },
    {
      "buffer": 0,
      "byteOffset": 122392,
      "byteLength": 1408,
      "byteStride": 32,
      "target": 34962
    },
    {
      "buffer": 0,
      "byteOffset": 123800,
      "byteLength": 3720,
      "byteStride": 24,
      "target": 34962
    },
    {
      "buffer": 0,
      "byteOffset": 127520,
      "byteLength": 2496,
      "byteStride": 32,
      "target": 34962
    },
    {
      "buffer": 0,
      "byteOffset": 130016,
      "byteLength": 3240,
      "byteStride": 24,
      "target": 34962
    },
    {
      "buffer": 0,
      "byteOffset": 133256,
      "byteLength": 1408,
      "byteStride": 32,
      "target": 34962
    },
    {
      "buffer": 0,
      "byteOffset": 134664,
      "byteLength": 3840,
      "byteStride": 24,
      "target": 34962
    },
    {
      "buffer": 0,
      "byteOffset": 138504,
      "byteLength": 2560,
      "byteStride": 32,
      "target": 34962
    },
    {
      "buffer": 0,
      "byteOffset": 141064,
      "byteLength": 3720,
      "byteStride": 24,
      "target": 34962
    },
    {
      "buffer": 0,
      "byteOffset": 144784,
      "byteLength": 2560,
      "byteStride": 32,
      "target": 34962
    },
    {
      "buffer": 0,
      "byteOffset": 147344,
      "byteLength": 3240,
      "byteStride": 24,
      "target": 34962
    },
    {
      "buffer": 0,
      "byteOffset": 150584,
      "byteLength": 1408,
      "byteStride": 32,
      "target": 34962
    },
    {
      "buffer": 0,
      "byteOffset": 151992,
      "byteLength": 3240,
      "byteStride": 24,
      "target": 34962
    },
    {
      "buffer": 0,
      "byteOffset": 155232,
      "byteLength": 1408,
      "byteStride": 32,
      "target": 34962
    },
    {
      "buffer": 0,
      "byteOffset": 156640,
      "byteLength": 3720,
      "byteStride": 24,
      "target": 34962
    },
    {
      "buffer": 0,
      "byteOffset": 160360,
      "byteLength": 2560,
      "byteStride": 32,
      "target": 34962
    },
    {
      "buffer": 0,
      "byteOffset": 162920,
      "byteLength": 3720,
      "byteStride": 24,
      "target": 34962
    },
    {
      "buffer": 0,
      "byteOffset": 166640,
      "byteLength": 2560,
      "byteStride": 32,
      "target": 34962
    },
    {
      "buffer": 0,
      "byteOffset": 169200,
      "byteLength": 4296,
      "byteStride": 24,
      "target": 34962
    },
    {
      "buffer": 0,
      "byteOffset": 173496,
      "byteLength": 3456,
      "byteStride": 32,
      "target": 34962
    },
    {
      "buffer": 0,
      "byteOffset": 176952,
      "byteLength": 4296,
      "byteStride": 24,
      "target": 34962
    },
    {
      "buffer": 0,
      "byteOffset": 181248,
      "byteLength": 3520,
      "byteStride": 32,
      "target": 34962
    },
    {
      "buffer": 0,
      "byteOffset": 184768,
      "byteLength": 3792,
      "byteStride": 24,
      "target": 34962
    },
    {
      "buffer": 0,
      "byteOffset": 188560,
      "byteLength": 2560,
      "byteStride": 32,
      "target": 34962
    },
    {
      "buffer": 0,
      "byteOffset": 191120,
      "byteLength": 3240,
      "byteStride": 24,
      "target": 34962
    },
    {
      "buffer": 0,
      "byteOffset": 194360,
      "byteLength": 1408,
      "byteStride": 32,
      "target": 34962
    },
    {
      "buffer": 0,
      "byteOffset": 195768,
      "byteLength": 3720,
      "byteStride": 24,
      "target": 34962
    },
    {
      "buffer": 0,
      "byteOffset": 199488,
      "byteLength": 2496,
      "byteStride": 32,
      "target": 34962
    },
    {
      "buffer": 0,
      "byteOffset": 201984,
      "byteLength": 4440,
      "byteStride": 24,
      "target": 34962
    },
    {
      "buffer": 0,
      "byteOffset": 206424,
      "byteLength": 3648,
      "byteStride": 32,
      "target": 34962
    },
    {
      "buffer": 0,
      "byteOffset": 210072,
      "byteLength": 3768,
      "byteStride": 24,
      "target": 34962
    },
    {
      "buffer": 0,
      "byteOffset": 213840,
      "byteLength": 2560,
      "byteStride": 32,
      "target": 34962
    },
    {
      "buffer": 0,
      "byteOffset": 216400,
      "byteLength": 4296,
      "byteStride": 24,
      "target": 34962
    },
    {
      "buffer": 0,
      "byteOffset": 220696,
      "byteLength": 3648,
      "byteStride": 32,
      "target": 34962
    }
  ],
  "samplers": [
    {
      "magFilter": 9729,
      "minFilter": 9987,
      "wrapS": 10497,
      "wrapT": 10497
    }
  ],
  "textures": [
    {
      "source": 0,
      "sampler": 0
    },
    {
      "source": 1,
      "sampler": 0
    }
  ],
  "images": [
    {
      "mimeType": "image/webp",
      "uri": "textures/Sticker_SPC-SM_baseColor_compressed.webp"
    },
    {
      "mimeType": "image/webp",
      "uri": "textures/Sticker_SPC-SM_metallicRoughness_compressed.webp"
    }
  ],
  "buffers": [
    {
      "uri": "scene.bin",
      "byteLength": 224344
    }
  ],
  "materials": [
    {
      "name": "Base",
      "doubleSided": true,
      "pbrMetallicRoughness": {
        "baseColorFactor": [
          0,
          0,
          0,
          1
        ],
        "roughnessFactor": 0.3,
        "metallicFactor": 0
      }
    },
    {
      "name": "Sticker_SPC-SM",
      "doubleSided": true,
      "pbrMetallicRoughness": {
        "roughnessFactor": 0.2,
        "baseColorTexture": {
          "index": 0
        },
        "metallicRoughnessTexture": {
          "index": 1
        }
      }
    }
  ],
  "meshes": [
    {
      "name": "Mirror Cube_Base_0",
      "primitives": [
        {
          "attributes": {
            "NORMAL": 53,
            "POSITION": 54
          },
          "mode": 4,
          "material": 0,
          "indices": 0
        }
      ]
    },
    {
      "name": "Piece.001_Base_0",
      "primitives": [
        {
          "attributes": {
            "NORMAL": 55,
            "POSITION": 56
          },
          "mode": 4,
          "material": 0,
          "indices": 1
        }
      ]
    },
    {
      "name": "Piece.001_Sticker SPC-SM_0",
      "primitives": [
        {
          "attributes": {
            "NORMAL": 57,
            "POSITION": 58,
            "TEXCOORD_0": 59
          },
          "mode": 4,
          "material": 1,
          "indices": 2
        }
      ]
    },
    {
      "name": "Piece.002_Base_0",
      "primitives": [
        {
          "attributes": {
            "NORMAL": 60,
            "POSITION": 61
          },
          "mode": 4,
          "material": 0,
          "indices": 3
        }
      ]
    },
    {
      "name": "Piece.002_Sticker SPC-SM_0",
      "primitives": [
        {
          "attributes": {
            "NORMAL": 62,
            "POSITION": 63,
            "TEXCOORD_0": 64
          },
          "mode": 4,
          "material": 1,
          "indices": 4
        }
      ]
    },
    {
      "name": "Piece.003_Base_0",
      "primitives": [
        {
          "attributes": {
            "NORMAL": 65,
            "POSITION": 66
          },
          "mode": 4,
          "material": 0,
          "indices": 5
        }
      ]
    },
    {
      "name": "Piece.003_Sticker SPC-SM_0",
      "primitives": [
        {
          "attributes": {
            "NORMAL": 67,
            "POSITION": 68,
            "TEXCOORD_0": 69
          },
          "mode": 4,
          "material": 1,
          "indices": 6
        }
      ]
    },
    {
      "name": "Piece.004_Base_0",
      "primitives": [
        {
          "attributes": {
            "NORMAL": 70,
            "POSITION": 71
          },
          "mode": 4,
          "material": 0,
          "indices": 7
        }
      ]
    },
    {
      "name": "Piece.004_Sticker SPC-SM_0",
      "primitives": [
        {
          "attributes": {
            "NORMAL": 72,
            "POSITION": 73,
            "TEXCOORD_0": 74
          },
          "mode": 4,
          "material": 1,
          "indices": 8
        }
      ]
    },
    {
      "name": "Piece.005_Base_0",
      "primitives": [
        {
          "attributes": {
            "NORMAL": 75,
            "POSITION": 76
          },
          "mode": 4,
          "material": 0,
          "indices": 9
        }
      ]
    },
    {
      "name": "Piece.005_Sticker SPC-SM_0",
      "primitives": [
        {
          "attributes": {
            "NORMAL": 77,
            "POSITION": 78,
            "TEXCOORD_0": 79
          },
          "mode": 4,
          "material": 1,
          "indices": 10
        }
      ]
    },
    {
      "name": "Piece.006_Base_0",
      "primitives": [
        {
          "attributes": {
            "NORMAL": 80,
            "POSITION": 81
          },
          "mode": 4,
          "material": 0,
          "indices": 11
        }
      ]
    },
    {
      "name": "Piece.006_Sticker SPC-SM_0",
      "primitives": [
        {
          "attributes": {
            "NORMAL": 82,
            "POSITION": 83,
            "TEXCOORD_0": 84
          },
          "mode": 4,
          "material": 1,
          "indices": 12
        }
      ]
    },
    {
      "name": "Piece.007_Base_0",
      "primitives": [
        {
          "attributes": {
            "NORMAL": 85,
            "POSITION": 86
          },
          "mode": 4,
          "material": 0,
          "indices": 13
        }
      ]
    },
    {
      "name": "Piece.007_Sticker SPC-SM_0",
      "primitives": [
        {
          "attributes": {
            "NORMAL": 87,
            "POSITION": 88,
            "TEXCOORD_0": 89
          },
          "mode": 4,
          "material": 1,
          "indices": 14
        }
      ]
    },
    {
      "name": "Piece.008_Base_0",
      "primitives": [
        {
          "attributes": {
            "NORMAL": 90,
            "POSITION": 91
          },
          "mode": 4,
          "material": 0,
          "indices": 15
        }
      ]
    },
    {
      "name": "Piece.008_Sticker SPC-SM_0",
      "primitives": [
        {
          "attributes": {
            "NORMAL": 92,
            "POSITION": 93,
            "TEXCOORD_0": 94
          },
          "mode": 4,
          "material": 1,
          "indices": 16
        }
      ]
    },
    {
      "name": "Piece.009_Base_0",
      "primitives": [
        {
          "attributes": {
            "NORMAL": 95,
            "POSITION": 96
          },
          "mode": 4,
          "material": 0,
          "indices": 17
        }
      ]
    },
    {
      "name": "Piece.009_Sticker SPC-SM_0",
      "primitives": [
        {
          "attributes": {
            "NORMAL": 97,
            "POSITION": 98,
            "TEXCOORD_0": 99
          },
          "mode": 4,
          "material": 1,
          "indices": 18
        }
      ]
    },
    {
      "name": "Piece.010_Base_0",
      "primitives": [
        {
          "attributes": {
            "NORMAL": 100,
            "POSITION": 101
          },
          "mode": 4,
          "material": 0,
          "indices": 19
        }
      ]
    },
    {
      "name": "Piece.010_Sticker SPC-SM_0",
      "primitives": [
        {
          "attributes": {
            "NORMAL": 102,
            "POSITION": 103,
            "TEXCOORD_0": 104
          },
          "mode": 4,
          "material": 1,
          "indices": 20
        }
      ]
    },
    {
      "name": "Piece.011_Base_0",
      "primitives": [
        {
          "attributes": {
            "NORMAL": 105,
            "POSITION": 106
          },
          "mode": 4,
          "material": 0,
          "indices": 21
        }
      ]
    },
    {
      "name": "Piece.011_Sticker SPC-SM_0",
      "primitives": [
        {
          "attributes": {
            "NORMAL": 107,
            "POSITION": 108,
            "TEXCOORD_0": 109
          },
          "mode": 4,
          "material": 1,
          "indices": 22
        }
      ]
    },
    {
      "name": "Piece.012_Base_0",
      "primitives": [
        {
          "attributes": {
            "NORMAL": 110,
            "POSITION": 111
          },
          "mode": 4,
          "material": 0,
          "indices": 23
        }
      ]
    },
    {
      "name": "Piece.012_Sticker SPC-SM_0",
      "primitives": [
        {
          "attributes": {
            "NORMAL": 112,
            "POSITION": 113,
            "TEXCOORD_0": 114
          },
          "mode": 4,
          "material": 1,
          "indices": 24
        }
      ]
    },
    {
      "name": "Piece.013_Base_0",
      "primitives": [
        {
          "attributes": {
            "NORMAL": 115,
            "POSITION": 116
          },
          "mode": 4,
          "material": 0,
          "indices": 25
        }
      ]
    },
    {
      "name": "Piece.013_Sticker SPC-SM_0",
      "primitives": [
        {
          "attributes": {
            "NORMAL": 117,
            "POSITION": 118,
            "TEXCOORD_0": 119
          },
          "mode": 4,
          "material": 1,
          "indices": 26
        }
      ]
    },
    {
      "name": "Piece.014_Base_0",
      "primitives": [
        {
          "attributes": {
            "NORMAL": 120,
            "POSITION": 121
          },
          "mode": 4,
          "material": 0,
          "indices": 27
        }
      ]
    },
    {
      "name": "Piece.014_Sticker SPC-SM_0",
      "primitives": [
        {
          "attributes": {
            "NORMAL": 122,
            "POSITION": 123,
            "TEXCOORD_0": 124
          },
          "mode": 4,
          "material": 1,
          "indices": 28
        }
      ]
    },
    {
      "name": "Piece.015_Base_0",
      "primitives": [
        {
          "attributes": {
            "NORMAL": 125,
            "POSITION": 126
          },
          "mode": 4,
          "material": 0,
          "indices": 29
        }
      ]
    },
    {
      "name": "Piece.015_Sticker SPC-SM_0",
      "primitives": [
        {
          "attributes": {
            "NORMAL": 127,
            "POSITION": 128,
            "TEXCOORD_0": 129
          },
          "mode": 4,
          "material": 1,
          "indices": 30
        }
      ]
    },
    {
      "name": "Piece.016_Base_0",
      "primitives": [
        {
          "attributes": {
            "NORMAL": 130,
            "POSITION": 131
          },
          "mode": 4,
          "material": 0,
          "indices": 31
        }
      ]
    },
    {
      "name": "Piece.016_Sticker SPC-SM_0",
      "primitives": [
        {
          "attributes": {
            "NORMAL": 132,
            "POSITION": 133,
            "TEXCOORD_0": 134
          },
          "mode": 4,
          "material": 1,
          "indices": 32
        }
      ]
    },
    {
      "name": "Piece.017_Base_0",
      "primitives": [
        {
          "attributes": {
            "NORMAL": 135,
            "POSITION": 136
          },
          "mode": 4,
          "material": 0,
          "indices": 33
        }
      ]
    },
    {
      "name": "Piece.017_Sticker SPC-SM_0",
      "primitives": [
        {
          "attributes": {
            "NORMAL": 137,
            "POSITION": 138,
            "TEXCOORD_0": 139
          },
          "mode": 4,
          "material": 1,
          "indices": 34
        }
      ]
    },
    {
      "name": "Piece.018_Base_0",
      "primitives": [
        {
          "attributes": {
            "NORMAL": 140,
            "POSITION": 141
          },
          "mode": 4,
          "material": 0,
          "indices": 35
        }
      ]
    },
    {
      "name": "Piece.018_Sticker SPC-SM_0",
      "primitives": [
        {
          "attributes": {
            "NORMAL": 142,
            "POSITION": 143,
            "TEXCOORD_0": 144
          },
          "mode": 4,
          "material": 1,
          "indices": 36
        }
      ]
    },
    {
      "name": "Piece.019_Base_0",
      "primitives": [
        {
          "attributes": {
            "NORMAL": 145,
            "POSITION": 146
          },
          "mode": 4,
          "material": 0,
          "indices": 37
        }
      ]
    },
    {
      "name": "Piece.019_Sticker SPC-SM_0",
      "primitives": [
        {
          "attributes": {
            "NORMAL": 147,
            "POSITION": 148,
            "TEXCOORD_0": 149
          },
          "mode": 4,
          "material": 1,
          "indices": 38
        }
      ]
    },
    {
      "name": "Piece.020_Base_0",
      "primitives": [
        {
          "attributes": {
            "NORMAL": 150,
            "POSITION": 151
          },
          "mode": 4,
          "material": 0,
          "indices": 39
        }
      ]
    },
    {
      "name": "Piece.020_Sticker SPC-SM_0",
      "primitives": [
        {
          "attributes": {
            "NORMAL": 152,
            "POSITION": 153,
            "TEXCOORD_0": 154
          },
          "mode": 4,
          "material": 1,
          "indices": 40
        }
      ]
    },
    {
      "name": "Piece.021_Base_0",
      "primitives": [
        {
          "attributes": {
            "NORMAL": 155,
            "POSITION": 156
          },
          "mode": 4,
          "material": 0,
          "indices": 41
        }
      ]
    },
    {
      "name": "Piece.021_Sticker SPC-SM_0",
      "primitives": [
        {
          "attributes": {
            "NORMAL": 157,
            "POSITION": 158,
            "TEXCOORD_0": 159
          },
          "mode": 4,
          "material": 1,
          "indices": 42
        }
      ]
    },
    {
      "name": "Piece.022_Base_0",
      "primitives": [
        {
          "attributes": {
            "NORMAL": 160,
            "POSITION": 161
          },
          "mode": 4,
          "material": 0,
          "indices": 43
        }
      ]
    },
    {
      "name": "Piece.022_Sticker SPC-SM_0",
      "primitives": [
        {
          "attributes": {
            "NORMAL": 162,
            "POSITION": 163,
            "TEXCOORD_0": 164
          },
          "mode": 4,
          "material": 1,
          "indices": 44
        }
      ]
    },
    {
      "name": "Piece.023_Base_0",
      "primitives": [
        {
          "attributes": {
            "NORMAL": 165,
            "POSITION": 166
          },
          "mode": 4,
          "material": 0,
          "indices": 45
        }
      ]
    },
    {
      "name": "Piece.023_Sticker SPC-SM_0",
      "primitives": [
        {
          "attributes": {
            "NORMAL": 167,
            "POSITION": 168,
            "TEXCOORD_0": 169
          },
          "mode": 4,
          "material": 1,
          "indices": 46
        }
      ]
    },
    {
      "name": "Piece.024_Base_0",
      "primitives": [
        {
          "attributes": {
            "NORMAL": 170,
            "POSITION": 171
          },
          "mode": 4,
          "material": 0,
          "indices": 47
        }
      ]
    },
    {
      "name": "Piece.024_Sticker SPC-SM_0",
      "primitives": [
        {
          "attributes": {
            "NORMAL": 172,
            "POSITION": 173,
            "TEXCOORD_0": 174
          },
          "mode": 4,
          "material": 1,
          "indices": 48
        }
      ]
    },
    {
      "name": "Piece.025_Base_0",
      "primitives": [
        {
          "attributes": {
            "NORMAL": 175,
            "POSITION": 176
          },
          "mode": 4,
          "material": 0,
          "indices": 49
        }
      ]
    },
    {
      "name": "Piece.025_Sticker SPC-SM_0",
      "primitives": [
        {
          "attributes": {
            "NORMAL": 177,
            "POSITION": 178,
            "TEXCOORD_0": 179
          },
          "mode": 4,
          "material": 1,
          "indices": 50
        }
      ]
    },
    {
      "name": "Piece.026_Base_0",
      "primitives": [
        {
          "attributes": {
            "NORMAL": 180,
            "POSITION": 181
          },
          "mode": 4,
          "material": 0,
          "indices": 51
        }
      ]
    },
    {
      "name": "Piece.026_Sticker SPC-SM_0",
      "primitives": [
        {
          "attributes": {
            "NORMAL": 182,
            "POSITION": 183,
            "TEXCOORD_0": 184
          },
          "mode": 4,
          "material": 1,
          "indices": 52
        }
      ]
    }
  ],
  "nodes": [
    {
      "name": "Sketchfab_model",
      "rotation": [
        -0.7071067811865475,
        0,
        0,
        0.7071067811865476
      ],
      "children": [
        1
      ]
    },
    {
      "name": "abe92efbd46e4d58aa4f4106954e97ee.fbx",
      "rotation": [
        0.7071067811865475,
        0,
        0,
        0.7071067811865476
      ],
      "scale": [
        0.009999999776482582,
        0.009999999776482582,
        0.009999999776482582
      ],
      "children": [
        2
      ]
    },
    {
      "name": "RootNode",
      "children": [
        3
      ]
    },
    {
      "name": "Mirror Cube",
      "rotation": [
        -0.7071068387877038,
        0,
        0,
        0.7071067235853866
      ],
      "scale": [
        100,
        100.00000000000001,
        100.00000000000001
      ],
      "children": [
        4,
        5,
        8,
        11,
        14,
        17,
        20,
        23,
        26,
        29,
        32,
        35,
        38,
        41,
        44,
        47,
        50,
        53,
        56,
        59,
        62,
        65,
        68,
        71,
        74,
        77,
        80
      ]
    },
    {
      "name": "Mirror Cube_Base_0",
      "mesh": 0
    },
    {
      "name": "Piece.001",
      "children": [
        6,
        7
      ]
    },
    {
      "name": "Piece.001_Base_0",
      "mesh": 1
    },
    {
      "name": "Piece.001_Sticker SPC-SM_0",
      "mesh": 2
    },
    {
      "name": "Piece.002",
      "children": [
        9,
        10
      ]
    },
    {
      "name": "Piece.002_Base_0",
      "mesh": 3
    },
    {
      "name": "Piece.002_Sticker SPC-SM_0",
      "mesh": 4
    },
    {
      "name": "Piece.003",
      "children": [
        12,
        13
      ]
    },
    {
      "name": "Piece.003_Base_0",
      "mesh": 5
    },
    {
      "name": "Piece.003_Sticker SPC-SM_0",
      "mesh": 6
    },
    {
      "name": "Piece.004",
      "children": [
        15,
        16
      ]
    },
    {
      "name": "Piece.004_Base_0",
      "mesh": 7
    },
    {
      "name": "Piece.004_Sticker SPC-SM_0",
      "mesh": 8
    },
    {
      "name": "Piece.005",
      "children": [
        18,
        19
      ]
    },
    {
      "name": "Piece.005_Base_0",
      "mesh": 9
    },
    {
      "name": "Piece.005_Sticker SPC-SM_0",
      "mesh": 10
    },
    {
      "name": "Piece.006",
      "children": [
        21,
        22
      ]
    },
    {
      "name": "Piece.006_Base_0",
      "mesh": 11
    },
    {
      "name": "Piece.006_Sticker SPC-SM_0",
      "mesh": 12
    },
    {
      "name": "Piece.007",
      "children": [
        24,
        25
      ]
    },
    {
      "name": "Piece.007_Base_0",
      "mesh": 13
    },
    {
      "name": "Piece.007_Sticker SPC-SM_0",
      "mesh": 14
    },
    {
      "name": "Piece.008",
      "children": [
        27,
        28
      ]
    },
    {
      "name": "Piece.008_Base_0",
      "mesh": 15
    },
    {
      "name": "Piece.008_Sticker SPC-SM_0",
      "mesh": 16
    },
    {
      "name": "Piece.009",
      "children": [
        30,
        31
      ]
    },
    {
      "name": "Piece.009_Base_0",
      "mesh": 17
    },
    {
      "name": "Piece.009_Sticker SPC-SM_0",
      "mesh": 18
    },
    {
      "name": "Piece.010",
      "children": [
        33,
        34
      ]
    },
    {
      "name": "Piece.010_Base_0",
      "mesh": 19
    },
    {
      "name": "Piece.010_Sticker SPC-SM_0",
      "mesh": 20
    },
    {
      "name": "Piece.011",
      "children": [
        36,
        37
      ]
    },
    {
      "name": "Piece.011_Base_0",
      "mesh": 21
    },
    {
      "name": "Piece.011_Sticker SPC-SM_0",
      "mesh": 22
    },
    {
      "name": "Piece.012",
      "children": [
        39,
        40
      ]
    },
    {
      "name": "Piece.012_Base_0",
      "mesh": 23
    },
    {
      "name": "Piece.012_Sticker SPC-SM_0",
      "mesh": 24
    },
    {
      "name": "Piece.013",
      "children": [
        42,
        43
      ]
    },
    {
      "name": "Piece.013_Base_0",
      "mesh": 25
    },
    {
      "name": "Piece.013_Sticker SPC-SM_0",
      "mesh": 26
    },
    {
      "name": "Piece.014",
      "children": [
        45,
        46
      ]
    },
    {
      "name": "Piece.014_Base_0",
      "mesh": 27
    },
    {
      "name": "Piece.014_Sticker SPC-SM_0",
      "mesh": 28
    },
    {
      "name": "Piece.015",
      "children": [
        48,
        49
      ]
    },
    {
      "name": "Piece.015_Base_0",
      "mesh": 29
    },
    {
      "name": "Piece.015_Sticker SPC-SM_0",
      "mesh": 30
    },
    {
      "name": "Piece.016",
      "children": [
        51,
        52
      ]
    },
    {
      "name": "Piece.016_Base_0",
      "mesh": 31
    },
    {
      "name": "Piece.016_Sticker SPC-SM_0",
      "mesh": 32
    },
    {
      "name": "Piece.017",
      "children": [
        54,
        55
      ]
    },
    {
      "name": "Piece.017_Base_0",
      "mesh": 33
    },
    {
      "name": "Piece.017_Sticker SPC-SM_0",
      "mesh": 34
    },
    {
      "name": "Piece.018",
      "children": [
        57,
        58
      ]
    },
    {
      "name": "Piece.018_Base_0",
      "mesh": 35
    },
    {
      "name": "Piece.018_Sticker SPC-SM_0",
      "mesh": 36
    },
    {
      "name": "Piece.019",
      "children": [
        60,
        61
      ]
    },
    {
      "name": "Piece.019_Base_0",
      "mesh": 37
    },
    {
      "name": "Piece.019_Sticker SPC-SM_0",
      "mesh": 38
    },
    {
      "name": "Piece.020",
      "children": [
        63,
        64
      ]
    },
    {
      "name": "Piece.020_Base_0",
      "mesh": 39
    },
    {
      "name": "Piece.020_Sticker SPC-SM_0",
      "mesh": 40
    },
    {
      "name": "Piece.021",
      "children": [
        66,
        67
      ]
    },
    {
      "name": "Piece.021_Base_0",
      "mesh": 41
    },
    {
      "name": "Piece.021_Sticker SPC-SM_0",
      "mesh": 42
    },
    {
      "name": "Piece.022",
      "children": [
        69,
        70
      ]
    },
    {
      "name": "Piece.022_Base_0",
      "mesh": 43
    },
    {
      "name": "Piece.022_Sticker SPC-SM_0",
      "mesh": 44
    },
    {
      "name": "Piece.023",
      "children": [
        72,
        73
      ]
    },
    {
      "name": "Piece.023_Base_0",
      "mesh": 45
    },
    {
      "name": "Piece.023_Sticker SPC-SM_0",
      "mesh": 46
    },
    {
      "name": "Piece.024",
      "children": [
        75,
        76
      ]
    },
    {
      "name": "Piece.024_Base_0",
      "mesh": 47
    },
    {
      "name": "Piece.024_Sticker SPC-SM_0",
      "mesh": 48
    },
    {
      "name": "Piece.025",
      "children": [
        78,
        79
      ]
    },
    {
      "name": "Piece.025_Base_0",
      "mesh": 49
    },
    {
      "name": "Piece.025_Sticker SPC-SM_0",
      "mesh": 50
    },
    {
      "name": "Piece.026",
      "children": [
        81,
        82
      ]
    },
    {
      "name": "Piece.026_Base_0",
      "mesh": 51
    },
    {
      "name": "Piece.026_Sticker SPC-SM_0",
      "mesh": 52
    }
  ],
  "scenes": [
    {
      "name": "Sketchfab_Scene",
      "nodes": [
        0
      ]
    }
  ],
  "scene": 0
}