<svg width="32" height="32" viewBox="0 0 32 32" xmlns="http://www.w3.org/2000/svg">
  <defs>
    <filter id="glow" x="-50%" y="-50%" width="200%" height="200%">
      <feGaussianBlur stdDeviation="1.5" result="coloredBlur"/>
      <feMerge> 
        <feMergeNode in="coloredBlur"/>
        <feMergeNode in="SourceGraphic"/>
      </feMerge>
    </filter>
  </defs>
  
  <!-- Dark background with rounded corners -->
  <rect width="32" height="32" fill="#0a0a0a" rx="6"/>
  
  <!-- Stylized "B" letter for "BRXSTNG BLG" -->
  <g filter="url(#glow)">
    <!-- Main B shape -->
    <path d="M7 5 L7 27 L19 27 Q24 27 24 22 Q24 19.5 21 18.5 Q24 17.5 24 14 Q24 9 19 9 L7 5 Z" 
          fill="none" 
          stroke="#00ffff" 
          stroke-width="1.5"/>
    
    <!-- Top bump of B -->
    <path d="M10 8 L18 8 Q21 8 21 11 Q21 14 18 14 L10 14 Z" 
          fill="#00ffff" 
          opacity="0.3"/>
    
    <!-- Bottom bump of B -->
    <path d="M10 17 L19 17 Q22 17 22 20.5 Q22 24 19 24 L10 24 Z" 
          fill="#00ffff" 
          opacity="0.3"/>
    
    <!-- Vertical line of B -->
    <line x1="10" y1="8" x2="10" y2="24" stroke="#00ffff" stroke-width="2"/>
  </g>
  
  <!-- Accent dots for tech/digital feel -->
  <circle cx="26" cy="6" r="1" fill="#00aaff" opacity="0.8"/>
  <circle cx="26" cy="26" r="0.8" fill="#0088ff" opacity="0.6"/>
</svg>