{
  "accessors": [
    {
      "bufferView": 2,
      "componentType": 5126,
      "count": 21117,
      "max": [
        0.9885820150375366,
        0.9642329812049866,
        1.0
      ],
      "min": [
        -0.9885820150375366,
        -0.9642329812049866,
        -1.0
      ],
      "type": "VEC3"
    },
    {
      "bufferView": 2,
      "byteOffset": 253404,
      "componentType": 5126,
      "count": 21117,
      "max": [
        1.0,
        0.9999993443489075,
        0.9999521374702454
      ],
      "min": [
        -1.0,
        -0.9999387860298157,
        -0.9999993443489075
      ],
      "type": "VEC3"
    },
    {
      "bufferView": 3,
      "componentType": 5126,
      "count": 21117,
      "max": [
        1.0,
        0.9993787407875061,
        0.993683397769928,
        1.0
      ],
      "min": [
        -1.0,
        -0.999273419380188,
        -0.9931886792182922,
        -1.0
      ],
      "type": "VEC4"
    },
    {
      "bufferView": 1,
      "componentType": 5126,
      "count": 21117,
      "max": [
        1.0,
        0.996504008769989
      ],
      "min": [
        0.0,
        0.009863000363111496
      ],
      "type": "VEC2"
    },
    {
      "bufferView": 0,
      "componentType": 5125,
      "count": 121110,
      "type": "SCALAR"
    }
  ],
  "asset": {
    "extras": {
      "author": "Renan (https://sketchfab.com/renandesign3d)",
      "license": "CC-BY-4.0 (http://creativecommons.org/licenses/by/4.0/)",
      "source": "https://sketchfab.com/3d-models/sphere-albedo-0a74c53cac874c57b41fe31924db7f73",
      "title": "Sphere Albedo"
    },
    "generator": "Sketchfab-12.65.0",
    "version": "2.0"
  },
  "bufferViews": [
    {
      "buffer": 0,
      "byteLength": 484440,
      "name": "floatBufferViews",
      "target": 34963
    },
    {
      "buffer": 0,
      "byteLength": 168936,
      "byteOffset": 484440,
      "byteStride": 8,
      "name": "floatBufferViews",
      "target": 34962
    },
    {
      "buffer": 0,
      "byteLength": 506808,
      "byteOffset": 653376,
      "byteStride": 12,
      "name": "floatBufferViews",
      "target": 34962
    },
    {
      "buffer": 0,
      "byteLength": 337872,
      "byteOffset": 1160184,
      "byteStride": 16,
      "name": "floatBufferViews",
      "target": 34962
    }
  ],
  "buffers": [
    {
      "byteLength": 1498056,
      "uri": "scene.bin"
    }
  ],
  "images": [
    {
      "uri": "textures/Sphere_baseColor.jpeg"
    },
    {
      "uri": "textures/Sphere_metallicRoughness.png"
    },
    {
      "uri": "textures/Sphere_normal.png"
    }
  ],
  "materials": [
    {
      "doubleSided": true,
      "name": "Sphere",
      "normalTexture": {
        "index": 2
      },
      "occlusionTexture": {
        "index": 1
      },
      "pbrMetallicRoughness": {
        "baseColorTexture": {
          "index": 0
        },
        "metallicRoughnessTexture": {
          "index": 1
        }
      }
    }
  ],
  "meshes": [
    {
      "name": "Object_0",
      "primitives": [
        {
          "attributes": {
            "NORMAL": 1,
            "POSITION": 0,
            "TANGENT": 2,
            "TEXCOORD_0": 3
          },
          "indices": 4,
          "material": 0,
          "mode": 4
        }
      ]
    }
  ],
  "nodes": [
    {
      "children": [
        1
      ],
      "matrix": [
        1.0,
        0.0,
        0.0,
        0.0,
        0.0,
        2.220446049250313e-16,
        -1.0,
        0.0,
        0.0,
        1.0,
        2.220446049250313e-16,
        0.0,
        0.0,
        0.0,
        0.0,
        1.0
      ],
      "name": "Sketchfab_model"
    },
    {
      "children": [
        2
      ],
      "name": "PreviewSphere.obj.cleaner.materialmerger.gles"
    },
    {
      "mesh": 0,
      "name": "Object_2"
    }
  ],
  "samplers": [
    {
      "magFilter": 9729,
      "minFilter": 9987,
      "wrapS": 10497,
      "wrapT": 10497
    }
  ],
  "scene": 0,
  "scenes": [
    {
      "name": "Sketchfab_Scene",
      "nodes": [
        0
      ]
    }
  ],
  "textures": [
    {
      "sampler": 0,
      "source": 0
    },
    {
      "sampler": 0,
      "source": 1
    },
    {
      "sampler": 0,
      "source": 2
    }
  ]
}
