{
  "asset": {
    "generator": "glTF-Transform v4.3.0",
    "version": "2.0",
    "extras": {
      "author": "Renan (https://sketchfab.com/renandesign3d)",
      "license": "CC-BY-4.0 (http://creativecommons.org/licenses/by/4.0/)",
      "source": "https://sketchfab.com/3d-models/sphere-albedo-0a74c53cac874c57b41fe31924db7f73",
      "title": "Sphere Albedo"
    }
  },
  "accessors": [
    {
      "type": "SCALAR",
      "componentType": 5123,
      "count": 4842,
      "bufferView": 0,
      "byteOffset": 0
    },
    {
      "type": "VEC3",
      "componentType": 5126,
      "count": 1085,
      "bufferView": 1,
      "byteOffset": 0
    },
    {
      "type": "VEC3",
      "componentType": 5126,
      "count": 1085,
      "max": [
        0.9837980270385742,
        0.9630150198936462,
        0.9996569752693176
      ],
      "min": [
        -0.9861059784889221,
        -0.9628499746322632,
        -0.9956700205802917
      ],
      "bufferView": 1,
      "byteOffset": 12
    },
    {
      "type": "VEC4",
      "componentType": 5126,
      "count": 1085,
      "bufferView": 1,
      "byteOffset": 24
    },
    {
      "type": "VEC2",
      "componentType": 5126,
      "count": 1085,
      "bufferView": 1,
      "byteOffset": 40
    }
  ],
  "bufferViews": [
    {
      "buffer": 0,
      "byteOffset": 0,
      "byteLength": 9684,
      "target": 34963
    },
    {
      "buffer": 0,
      "byteOffset": 9684,
      "byteLength": 52080,
      "byteStride": 48,
      "target": 34962
    }
  ],
  "samplers": [
    {
      "magFilter": 9729,
      "minFilter": 9987,
      "wrapS": 10497,
      "wrapT": 10497
    }
  ],
  "textures": [
    {
      "source": 0,
      "sampler": 0
    },
    {
      "source": 2,
      "sampler": 0
    },
    {
      "source": 1,
      "sampler": 0
    }
  ],
  "images": [
    {
      "mimeType": "image/webp",
      "uri": "textures/Sphere_baseColor_compressed.webp"
    },
    {
      "mimeType": "image/webp",
      "uri": "textures/Sphere_metallicRoughness_compressed.webp"
    },
    {
      "mimeType": "image/webp",
      "uri": "textures/Sphere_normal_compressed.webp"
    }
  ],
  "buffers": [
    {
      "uri": "scene.bin",
      "byteLength": 61764
    }
  ],
  "materials": [
    {
      "name": "Sphere",
      "doubleSided": true,
      "pbrMetallicRoughness": {
        "baseColorTexture": {
          "index": 0
        },
        "metallicRoughnessTexture": {
          "index": 2
        }
      },
      "normalTexture": {
        "index": 1
      },
      "occlusionTexture": {
        "index": 2
      }
    }
  ],
  "meshes": [
    {
      "name": "Object_0",
      "primitives": [
        {
          "attributes": {
            "NORMAL": 1,
            "POSITION": 2,
            "TANGENT": 3,
            "TEXCOORD_0": 4
          },
          "mode": 4,
          "material": 0,
          "indices": 0
        }
      ]
    }
  ],
  "nodes": [
    {
      "name": "Sketchfab_model",
      "rotation": [
        -0.7071067811865475,
        0,
        0,
        0.7071067811865476
      ],
      "children": [
        1
      ]
    },
    {
      "name": "PreviewSphere.obj.cleaner.materialmerger.gles",
      "children": [
        2
      ]
    },
    {
      "name": "Object_2",
      "mesh": 0
    }
  ],
  "scenes": [
    {
      "name": "Sketchfab_Scene",
      "nodes": [
        0
      ]
    }
  ],
  "scene": 0
}